<svg viewBox="0 0 48 56" xmlns="http://www.w3.org/2000/svg">
    <g transform="translate(-4.5 -6.1)" fill="none" fill-rule="evenodd">
        <rect stroke-opacity=".7" stroke="#CAC1C8" stroke-width="2" fill="#181A20" x="5.5" y="11.1" width="46" height="46" rx="9"/>
        <g transform="rotate(-22 35 6.6)">
            <path d="M17.9 0c2.3.1 4.2 1 5.5 2.8C25 4 27 11.9 28.7 16c3 7.2 5.5 14.6 6.1 18.1C36 40.8 36 44.5 31.5 51c-3 4.3-7.5 6.4-13.6 6.5a3.8 3.8 0 0 1-.1 0c-6.1 0-10.6-2.2-13.6-6.5C-.3 44.5-.3 40.8.8 34.2c.6-3.5 3-10.9 6.1-18.1C8.7 11.9 10.8 4 12.2 2.8A6.8 6.8 0 0 1 17.9 0Z" fill="#556422"/>
            <path d="M17.7 3.4c2.2 0 3.9.8 5.1 2.3 1.3 1.8 2.7 7 4.7 11.7 2.6 6.7 5 12.8 5.6 16 1 5.7 1 9-3 14.6-2.7 3.8-6.8 5.6-12.4 5.6-5.5 0-9.6-1.8-12.3-5.6-4-5.7-4-9-3-14.7.5-3 2.9-9.2 5.6-15.9 2-4.7 3.4-10 4.6-11.7 1.2-1.5 3-2.3 5.1-2.3Z" fill="#98AD47"/>
            <path d="M17.7 11.3c1.4 0 2.5.6 3.4 1.7.9.7 2.6 5.7 3.4 8.2 1 3 3.4 9 3.8 11 .7 4 .6 6.4-2.2 10.3-1.9 2.7-4.7 4-8.6 4v-.1c-3.8 0-6.6-1.4-8.5-4-2.8-4-2.8-6.2-2-10.2.3-2.2 2.6-8 3.7-11.1.8-2.5 2.5-7.5 3.4-8.2.9-1.1 2-1.7 3.6-1.7v.1Z" fill="#E6D381"/>
            <circle fill="#773700" cx="18.4" cy="34.4" r="7.9"/>
        </g>
    </g>
</svg>
