<svg width="512" height="512" xmlns="http://www.w3.org/2000/svg"><g fill="none" fill-rule="evenodd"><path fill="#F6DB28" d="M0 0h512v512H0z"/><g transform="rotate(-22 300.656 -58.752)"><path d="M134.21.325c17.757.226 31.746 6.859 41.965 19.899 10.595 9.248 26.427 68.258 39.794 99.333 23.148 53.814 41.493 108.783 46.08 134.928 8.567 48.837 8.212 76.715-25.466 124.774-22.3 31.823-56.424 47.842-102.374 48.058-.157.002-.314.002-.47.002h-.471c-45.95-.218-80.074-16.237-102.374-48.06C-2.784 331.2-3.139 303.322 5.428 254.485c4.587-26.145 22.932-81.114 46.08-134.928 13.367-31.075 29.199-90.085 39.794-99.333C101.522 7.184 115.51.551 133.268.325a74.516 74.516 0 0 1 .942-.006Z" fill="#556422"/><path d="M134.39 26.543c16.3 0 29.105 5.811 38.416 17.434 9.062 13.032 20.112 51.474 34.6 87.004 20.167 49.453 38.178 95.28 42.285 118.18 7.67 42.776 7.352 67.193-22.8 109.287-20.102 28.063-50.936 42.095-92.501 42.095-41.566 0-72.4-14.032-92.501-42.095-30.153-42.094-30.471-66.511-22.8-109.287 4.106-22.9 22.118-68.727 42.284-118.18 14.488-35.53 25.538-73.972 34.6-87.004 9.311-11.623 22.117-17.434 38.417-17.434Z" fill="#98AD47"/><path d="M134.85 84.852c10.706.297 19.169 4.316 25.387 12.055 6.588 5.61 19.442 42.344 25.468 60.252 7.635 22.686 25.08 65.982 27.933 81.841 5.328 29.623 5.107 46.532-15.836 75.683-13.962 19.434-35.378 29.15-64.248 29.15v-.66c-28.215-.288-49.199-10.003-62.951-29.145-20.943-29.15-21.164-46.06-15.836-75.682 2.852-15.86 20.298-59.155 27.933-81.842 6.026-17.908 18.88-54.642 25.468-60.251 6.467-8.05 15.361-12.074 26.682-12.074v.673Z" fill="#E6D381"/><circle fill="#773700" cx="137.762" cy="258.586" r="58.5"/></g></g></svg>
